<svg width="203" height="25" viewBox="0 0 203 25" fill="none" xmlns="http://www.w3.org/2000/svg">
<path d="M10.9752 25V4.61806H0.766846V0H25.7668V4.61806H15.5932V25H10.9752Z" fill="#D0D0D0"/>
<path d="M48.2942 25L40.7595 16.0069H46.7665L53.2942 23.7153V25H48.2942ZM28.3637 25V0.0347218H48.5026C49.3822 0.0347218 50.1924 0.254629 50.9331 0.694444C51.6739 1.13426 52.2641 1.72454 52.704 2.46528C53.1438 3.18287 53.3637 3.98148 53.3637 4.86111V11.5972C53.3637 12.4769 53.1438 13.287 52.704 14.0278C52.2641 14.7685 51.6739 15.3588 50.9331 15.7986C50.1924 16.2153 49.3822 16.4236 48.5026 16.4236L32.947 16.4583V25H28.3637ZM33.3637 11.8056H48.2942C48.41 11.8056 48.5141 11.7708 48.6067 11.7014C48.6993 11.6319 48.7456 11.5394 48.7456 11.4236V5.03472C48.7456 4.91898 48.6993 4.82639 48.6067 4.75695C48.5141 4.66435 48.41 4.61806 48.2942 4.61806H33.3637C33.2479 4.61806 33.1438 4.66435 33.0512 4.75695C32.9817 4.82639 32.947 4.91898 32.947 5.03472V11.4236C32.947 11.5394 32.9817 11.6319 33.0512 11.7014C33.1438 11.7708 33.2479 11.8056 33.3637 11.8056Z" fill="#D0D0D0"/>
<path d="M57.0857 25V4.82639C57.0857 3.94676 57.3056 3.14815 57.7455 2.43056C58.1853 1.68981 58.764 1.09954 59.4816 0.659722C60.2223 0.219907 61.0325 0 61.9121 0H77.2246C78.1043 0 78.9145 0.219907 79.6552 0.659722C80.3959 1.09954 80.9862 1.68981 81.426 2.43056C81.8658 3.14815 82.0857 3.94676 82.0857 4.82639V25H77.4677V16.5972H61.6691V25H57.0857ZM61.6691 12.0139H77.4677V5.03472C77.4677 4.91898 77.4214 4.82639 77.3288 4.75695C77.2362 4.66435 77.132 4.61806 77.0163 4.61806H62.0857C61.97 4.61806 61.8658 4.66435 61.7732 4.75695C61.7038 4.82639 61.6691 4.91898 61.6691 5.03472V12.0139Z" fill="#D0D0D0"/>
<path d="M85.5558 25V0H90.1044V25H85.5558Z" fill="#D0D0D0"/>
<path d="M93.4678 25V0H98.5026L113.85 18.2639V0H118.468V25H113.433L98.0512 6.70139V25H93.4678Z" fill="#D0D0D0"/>
<path d="M122.427 25V0H145.448V4.61806H127.045V10.1736H141.837V14.8264H127.045V20.3819H145.448V25H122.427Z" fill="#D0D0D0"/>
<path d="M148.942 25V0H153.977L169.324 18.2639V0H173.942V25H168.907L153.525 6.70139V25H148.942Z" fill="#D0D0D0"/>
<path d="M177.901 25V0H198.04C198.92 0 199.73 0.219907 200.471 0.659722C201.212 1.09954 201.802 1.68981 202.242 2.43056C202.682 3.14815 202.901 3.94676 202.901 4.82639V20.1736C202.901 21.0532 202.682 21.8634 202.242 22.6042C201.802 23.3218 201.212 23.9005 200.471 24.3403C199.73 24.7801 198.92 25 198.04 25H177.901ZM182.867 20.3819H197.832C197.948 20.3819 198.052 20.3472 198.144 20.2778C198.237 20.1852 198.283 20.081 198.283 19.9653V5.03472C198.283 4.91898 198.237 4.82639 198.144 4.75695C198.052 4.66435 197.948 4.61806 197.832 4.61806H182.867C182.751 4.61806 182.647 4.66435 182.554 4.75695C182.485 4.82639 182.45 4.91898 182.45 5.03472V19.9653C182.45 20.081 182.485 20.1852 182.554 20.2778C182.647 20.3472 182.751 20.3819 182.867 20.3819Z" fill="#D0D0D0"/>
</svg>
