<svg width="129" height="25" viewBox="0 0 129 25" fill="none" xmlns="http://www.w3.org/2000/svg">
<path d="M0 25V0H10.8214C13.0595 0 14.9881 0.369048 16.6071 1.10714C18.2262 1.82143 19.4762 2.85714 20.3571 4.21429C21.2381 5.57143 21.6786 7.19048 21.6786 9.07143C21.6786 10.9286 21.2381 12.5357 20.3571 13.8929C19.4762 15.25 18.2262 16.2976 16.6071 17.0357C14.9881 17.75 13.0595 18.1071 10.8214 18.1071H3.21429L5.78571 15.5V25H0ZM5.78571 16.1429L3.21429 13.3929H10.5C12.2857 13.3929 13.619 13.0119 14.5 12.25C15.3809 11.4881 15.8214 10.4286 15.8214 9.07143C15.8214 7.69048 15.3809 6.61905 14.5 5.85714C13.619 5.09524 12.2857 4.71429 10.5 4.71429H3.21429L5.78571 1.96429V16.1429Z" fill="#D0D0D0"/>
<path d="M25.8091 25V0H31.5949V25H25.8091Z" fill="#D0D0D0"/>
<path d="M42.7065 19.2857L42.385 12.6071L54.3493 0H60.7779L49.9922 11.6071L46.7779 15.0357L42.7065 19.2857ZM37.5279 25V0H43.2779V25H37.5279ZM54.635 25L45.7422 14.1071L49.5279 10L61.385 25H54.635Z" fill="#D0D0D0"/>
<path d="M63.9648 25V0H68.7505L83.5005 18H81.1791V0H86.8934V25H82.1434L67.3577 7H69.6791V25H63.9648Z" fill="#D0D0D0"/>
<path d="M92.8083 25V0H98.594V25H92.8083Z" fill="#D0D0D0"/>
<path d="M109.706 19.2857L109.384 12.6071L121.348 0H127.777L116.991 11.6071L113.777 15.0357L109.706 19.2857ZM104.527 25V0H110.277V25H104.527ZM121.634 25L112.741 14.1071L116.527 10L128.384 25H121.634Z" fill="#D0D0D0"/>
</svg>
