<svg width="199" height="25" viewBox="0 0 199 25" fill="none" xmlns="http://www.w3.org/2000/svg">
<path d="M20.3741 21.5932C19.9845 22.0497 19.3888 22.5451 18.5872 23.0795C17.7968 23.6028 16.7725 24.0537 15.5144 24.4322C14.2675 24.8107 12.7533 25 10.972 25C8.86779 25 7.01965 24.5435 5.42758 23.6306C3.8355 22.7065 2.59413 21.365 1.70346 19.6059C0.823924 17.8468 0.384155 15.7148 0.384155 13.2098V11.8236C0.384155 9.3075 0.807224 7.1699 1.65336 5.41082C2.51063 3.65175 3.70747 2.31018 5.24387 1.38611C6.78028 0.462035 8.57275 0 10.6213 0C12.77 0 14.5291 0.350701 15.8985 1.0521C17.2679 1.74237 18.3089 2.69984 19.0214 3.92452C19.7451 5.14919 20.1904 6.55756 20.3574 8.14963H15.2639C15.1526 7.3369 14.9243 6.64106 14.5792 6.06212C14.2452 5.47205 13.772 5.02115 13.1597 4.70942C12.5474 4.38655 11.7513 4.22512 10.7716 4.22512C9.69166 4.22512 8.77316 4.50902 8.01609 5.07682C7.25902 5.64462 6.68008 6.49076 6.27928 7.61523C5.88961 8.72857 5.69478 10.1202 5.69478 11.7902V13.2098C5.69478 14.8686 5.90631 16.2603 6.32938 17.3848C6.75245 18.5092 7.37592 19.3554 8.19979 19.9232C9.03479 20.491 10.0646 20.7749 11.2893 20.7749C12.0464 20.7749 12.6754 20.7136 13.1764 20.5912C13.6774 20.4687 14.0838 20.324 14.3955 20.157C14.7072 19.9788 14.9466 19.8118 15.1136 19.656V15.6146H10.7048V11.7902H20.3741V21.5932Z" fill="#D0D0D0"/>
<path d="M44.4055 13.0094C44.4055 15.5032 43.9658 17.6464 43.0862 19.4389C42.2067 21.2202 40.9876 22.5952 39.4289 23.5638C37.8702 24.5213 36.0666 25 34.0181 25C31.9695 25 30.1548 24.5213 28.5739 23.5638C27.0041 22.5952 25.7738 21.2202 24.8832 19.4389C23.9925 17.6464 23.5471 15.5032 23.5471 13.0094V12.024C23.5471 9.53017 23.9869 7.39256 24.8665 5.61122C25.7571 3.81875 26.9874 2.43821 28.5572 1.46961C30.127 0.501002 31.9361 0.0167001 33.9847 0.0167001C36.0332 0.0167001 37.8368 0.501002 39.3955 1.46961C40.9653 2.43821 42.19 3.81875 43.0695 5.61122C43.9602 7.39256 44.4055 9.53017 44.4055 12.024V13.0094ZM39.1116 11.9906C39.1116 10.3206 38.9112 8.91784 38.5104 7.78223C38.1096 6.64663 37.5251 5.78936 36.7569 5.21042C35.9887 4.63148 35.0646 4.34202 33.9847 4.34202C32.8825 4.34202 31.9528 4.63148 31.1958 5.21042C30.4387 5.78936 29.8598 6.64663 29.459 7.78223C29.0693 8.91784 28.8745 10.3206 28.8745 11.9906V13.0094C28.8745 14.6682 29.0749 16.071 29.4757 17.2178C29.8765 18.3534 30.4554 19.2162 31.2125 19.8063C31.9807 20.3963 32.9159 20.6914 34.0181 20.6914C35.098 20.6914 36.0165 20.3963 36.7736 19.8063C37.5418 19.2162 38.1207 18.3534 38.5104 17.2178C38.9112 16.071 39.1116 14.6682 39.1116 13.0094V11.9906Z" fill="#D0D0D0"/>
<path d="M72.8791 24.666H60.0368V20.4409H72.8791V24.666ZM61.7235 24.666H56.463V0.350701H61.7235V24.666ZM71.2091 14.2118H60.0368V10.1202H71.2091V14.2118ZM72.8624 4.59252H60.0368V0.350701H72.8624V4.59252Z" fill="#D0D0D0"/>
<path d="M84.5191 8.58383L88.8945 0.350701H94.9232L87.9259 12.4081L95.0902 24.666H89.0114L84.5191 16.2826L80.0101 24.666H73.9313L81.1123 12.4081L74.0983 0.350701H80.127L84.5191 8.58383Z" fill="#D0D0D0"/>
<path d="M100.935 16.1991V11.9739H107.047C107.972 11.9739 108.717 11.8236 109.285 11.523C109.864 11.2224 110.287 10.8105 110.554 10.2872C110.822 9.76397 110.955 9.16277 110.955 8.48363C110.955 7.8045 110.822 7.1699 110.554 6.57983C110.287 5.97862 109.864 5.49989 109.285 5.14362C108.717 4.77622 107.972 4.59252 107.047 4.59252H102.739V24.666H97.4783V0.350701H107.047C108.974 0.350701 110.627 0.701403 112.007 1.40281C113.388 2.10421 114.446 3.06725 115.18 4.29192C115.915 5.50546 116.283 6.89156 116.283 8.45023C116.283 10.0312 115.915 11.4006 115.18 12.5584C114.446 13.7163 113.388 14.6126 112.007 15.2472C110.627 15.8818 108.974 16.1991 107.047 16.1991H100.935Z" fill="#D0D0D0"/>
<path d="M135.404 24.666H123.196V20.4409H135.404V24.666ZM124.866 24.666H119.623V0.350701H124.866V24.666Z" fill="#D0D0D0"/>
<path d="M157.131 13.0094C157.131 15.5032 156.691 17.6464 155.812 19.4389C154.932 21.2202 153.713 22.5952 152.154 23.5638C150.596 24.5213 148.792 25 146.744 25C144.695 25 142.88 24.5213 141.299 23.5638C139.73 22.5952 138.499 21.2202 137.609 19.4389C136.718 17.6464 136.273 15.5032 136.273 13.0094V12.024C136.273 9.53017 136.712 7.39256 137.592 5.61122C138.483 3.81875 139.713 2.43821 141.283 1.46961C142.852 0.501002 144.662 0.0167001 146.71 0.0167001C148.759 0.0167001 150.562 0.501002 152.121 1.46961C153.691 2.43821 154.915 3.81875 155.795 5.61122C156.686 7.39256 157.131 9.53017 157.131 12.024V13.0094ZM151.837 11.9906C151.837 10.3206 151.637 8.91784 151.236 7.78223C150.835 6.64663 150.251 5.78936 149.482 5.21042C148.714 4.63148 147.79 4.34202 146.71 4.34202C145.608 4.34202 144.678 4.63148 143.921 5.21042C143.164 5.78936 142.585 6.64663 142.184 7.78223C141.795 8.91784 141.6 10.3206 141.6 11.9906V13.0094C141.6 14.6682 141.8 16.071 142.201 17.2178C142.602 18.3534 143.181 19.2162 143.938 19.8063C144.706 20.3963 145.641 20.6914 146.744 20.6914C147.823 20.6914 148.742 20.3963 149.499 19.8063C150.267 19.2162 150.846 18.3534 151.236 17.2178C151.637 16.071 151.837 14.6682 151.837 13.0094V11.9906Z" fill="#D0D0D0"/>
<path d="M169.806 0.350701C171.688 0.350701 173.302 0.634603 174.649 1.2024C176.008 1.75907 177.049 2.58294 177.772 3.67401C178.496 4.75395 178.858 6.09552 178.858 7.69873C178.858 9.03474 178.635 10.1703 178.19 11.1055C177.756 12.0407 177.143 12.8145 176.353 13.4269C175.562 14.0392 174.633 14.5346 173.564 14.9132L171.894 15.8651H164.095L164.062 11.6232H169.79C170.636 11.6232 171.343 11.4841 171.911 11.2057C172.478 10.9163 172.901 10.5099 173.18 9.98664C173.458 9.46337 173.597 8.84547 173.597 8.13293C173.597 7.04186 173.286 6.17902 172.662 5.54442C172.05 4.90982 171.098 4.59252 169.806 4.59252H165.899V24.666H160.655V0.350701H169.806ZM168.637 13.8611L174.182 13.8277L179.743 24.4155V24.666H174.115L168.637 13.8611Z" fill="#D0D0D0"/>
<path d="M198.965 24.666H186.122V20.4409H198.965V24.666ZM187.809 24.666H182.548V0.350701H187.809V24.666ZM197.295 14.2118H186.122V10.1202H197.295V14.2118ZM198.948 4.59252H186.122V0.350701H198.948V4.59252Z" fill="#D0D0D0"/>
</svg>
