<svg width="316" height="25" viewBox="0 0 316 25" fill="none" xmlns="http://www.w3.org/2000/svg">
<path d="M17.2414 0C8.26975 0.0177305 0.929328 2.60638 0.964789 11.6312V13.3688C0.929328 22.3759 8.26975 24.9823 17.2414 25C26.1953 24.9823 33.5357 22.3759 33.5003 13.3688V11.6312C33.5003 2.62411 26.213 0 17.2414 0ZM24.2095 12.7837C24.2627 16.6844 21.0357 17.3936 17.2414 17.4468C13.4293 17.3936 10.2024 16.6844 10.2556 12.7837V12.1986C10.2024 8.3156 13.4293 7.60638 17.2414 7.55319C21.0357 7.60638 24.2627 8.3156 24.2095 12.1986V12.7837Z" fill="#D0D0D0"/>
<path d="M59.5286 13.2092L49.0676 0.585106H36.2839V24.4149H45.5747V9.85816L58.3761 24.4149H68.8371V0.585106H59.5286V13.2092Z" fill="#D0D0D0"/>
<path d="M74.2627 24.4504H102.153V18.3333H83.5534V15.2837H102.153V9.7695H83.5534V6.71986H102.153V0.620567H74.2627V24.4504Z" fill="#D0D0D0"/>
<path d="M140.947 24.4504V8.17376H151.993V0.620567H120.61V8.17376H131.656V24.4504H140.947Z" fill="#D0D0D0"/>
<path d="M155.114 0.602837V24.4326H164.405V18.617H172.702L177.188 24.4326H187.082L181.887 17.7482C183.447 17.0213 184.706 15.922 185.646 14.4858C186.603 13.0319 187.082 11.4007 187.082 9.60993C187.153 4.68085 182.986 0.549645 178.075 0.602837H155.114ZM175.734 7.57092C176.869 7.57092 177.773 8.47518 177.773 9.60993C177.773 10.1596 177.578 10.6383 177.17 11.0461C176.78 11.4362 176.302 11.6312 175.734 11.6312H164.405V7.57092H175.734Z" fill="#D0D0D0"/>
<path d="M206.124 7.51773L209.387 14.5567H202.844L206.124 7.51773ZM187.809 24.4504H198.27L200.149 20.3723H212.082L213.961 24.4504H224.422L211.639 0.620567H200.592L187.809 24.4504Z" fill="#D0D0D0"/>
<path d="M228.731 0.620567H218.27L230.468 24.4504H241.514L253.731 0.620567H243.27L236 17.1631L228.731 0.620567Z" fill="#D0D0D0"/>
<path d="M254.44 24.4504H282.33V18.3333H263.731V15.2837H282.33V9.7695H263.731V6.71986H282.33V0.620567H254.44V24.4504Z" fill="#D0D0D0"/>
<path d="M287.277 0.585106V24.4149H315.167V16.8617H296.568V0.585106H287.277Z" fill="#D0D0D0"/>
</svg>
