<svg width="112" height="25" viewBox="0 0 112 25" fill="none" xmlns="http://www.w3.org/2000/svg">
<path d="M17.2485 20.7815H8.604L7.29003 24.758H0.166931L9.05351 0.380359H16.8682L25.7202 24.758H18.5625L17.2485 20.7815ZM15.5542 15.5947L12.9263 7.71093L10.3329 15.5947H15.5542Z" fill="#D0D0D0"/>
<path d="M34.7064 0.380359V24.758H27.9291V0.380359H34.7064Z" fill="#D0D0D0"/>
<path d="M50.9104 24.758L46.0694 15.7676H45.3433V24.758H38.566V0.380359H49.2506C51.21 0.380359 52.8698 0.726141 54.2299 1.4177C55.5899 2.08621 56.6157 3.01982 57.3073 4.21853C57.9989 5.39419 58.3447 6.71969 58.3447 8.19502C58.3447 9.85477 57.8836 11.3186 56.9615 12.5864C56.0625 13.8313 54.737 14.7188 52.985 15.249L58.483 24.758H50.9104ZM45.3433 11.1342H48.6974C49.6194 11.1342 50.311 10.9152 50.772 10.4772C51.2331 10.0392 51.4636 9.40526 51.4636 8.57538C51.4636 7.79161 51.2216 7.18073 50.7375 6.74274C50.2764 6.2817 49.5964 6.05118 48.6974 6.05118H45.3433V11.1342Z" fill="#D0D0D0"/>
<path d="M76.9869 8.40249C76.595 7.75703 76.0533 7.26141 75.3617 6.91563C74.6932 6.56985 73.8979 6.39696 72.9758 6.39696C71.27 6.39696 69.9214 6.95021 68.9302 8.05671C67.962 9.16321 67.4779 10.6501 67.4779 12.5173C67.4779 14.615 67.9966 16.2171 69.0339 17.3237C70.0943 18.4071 71.6273 18.9488 73.6328 18.9488C76.0072 18.9488 77.7015 17.8769 78.7158 15.7331H71.9039V10.8575H84.5595V17.4274C84.0293 18.7183 83.2455 19.9285 82.2082 21.0581C81.1939 22.1876 79.903 23.1213 78.3354 23.8589C76.7679 24.5735 74.9813 24.9308 72.9758 24.9308C70.5323 24.9308 68.3654 24.4122 66.4751 23.3748C64.6079 22.3144 63.1556 20.8506 62.1183 18.9834C61.104 17.0931 60.5968 14.9378 60.5968 12.5173C60.5968 10.1199 61.104 7.98755 62.1183 6.12033C63.1556 4.23006 64.6079 2.76625 66.4751 1.72891C68.3423 0.668511 70.4977 0.138313 72.9412 0.138313C76.0072 0.138313 78.5429 0.87598 80.5484 2.35131C82.554 3.82665 83.7988 5.84371 84.2829 8.40249H76.9869Z" fill="#D0D0D0"/>
<path d="M99.2841 25C97.0019 25 94.9042 24.4698 92.9909 23.4094C91.0776 22.326 89.5561 20.8391 88.4266 18.9488C87.3201 17.0355 86.7668 14.8801 86.7668 12.4827C86.7668 10.0853 87.3201 7.94145 88.4266 6.05118C89.5561 4.13785 91.0776 2.65099 92.9909 1.59059C94.9042 0.530198 97.0019 0 99.2841 0C101.589 0 103.687 0.530198 105.577 1.59059C107.491 2.65099 109.001 4.13785 110.107 6.05118C111.214 7.94145 111.767 10.0853 111.767 12.4827C111.767 14.8801 111.214 17.0355 110.107 18.9488C109.001 20.8391 107.491 22.326 105.577 23.4094C103.664 24.4698 101.566 25 99.2841 25ZM99.2841 18.7068C101.013 18.7068 102.373 18.142 103.364 17.0124C104.379 15.8829 104.886 14.373 104.886 12.4827C104.886 10.5463 104.379 9.0249 103.364 7.9184C102.373 6.78884 101.013 6.22407 99.2841 6.22407C97.5321 6.22407 96.1605 6.78884 95.1693 7.9184C94.1781 9.0249 93.6824 10.5463 93.6824 12.4827C93.6824 14.396 94.1781 15.9175 95.1693 17.047C96.1605 18.1535 97.5321 18.7068 99.2841 18.7068Z" fill="#D0D0D0"/>
</svg>
