<svg width="86" height="32" viewBox="0 0 86 32" fill="none" xmlns="http://www.w3.org/2000/svg">
<path d="M12.526 26.0632C10.721 26.0632 9.04655 25.7696 7.50255 25.1825C5.98029 24.5953 4.65375 23.7689 3.52294 22.7034C2.41386 21.6378 1.544 20.3874 0.913354 18.9521C0.304451 17.5168 0 15.9511 0 14.2548C0 12.5586 0.304451 10.9929 0.913354 9.5576C1.544 8.12233 2.42474 6.8719 3.55556 5.80632C4.68637 4.74074 6.01291 3.91437 7.53517 3.32722C9.05742 2.74006 10.7102 2.44648 12.4934 2.44648C14.2983 2.44648 15.9511 2.74006 17.4516 3.32722C18.9738 3.91437 20.2895 4.74074 21.3986 5.80632C22.5294 6.8719 23.4101 8.12233 24.0408 9.5576C24.6714 10.9711 24.9867 12.5369 24.9867 14.2548C24.9867 15.9511 24.6714 17.5277 24.0408 18.9847C23.4101 20.42 22.5294 21.6704 21.3986 22.736C20.2895 23.7798 18.9738 24.5953 17.4516 25.1825C15.9511 25.7696 14.3092 26.0632 12.526 26.0632ZM12.4934 21.5617C13.5155 21.5617 14.4506 21.3877 15.2987 21.0398C16.1685 20.6918 16.9297 20.1916 17.5821 19.5392C18.2345 18.8869 18.7346 18.1148 19.0826 17.2232C19.4523 16.3316 19.6371 15.3422 19.6371 14.2548C19.6371 13.1675 19.4523 12.1781 19.0826 11.2864C18.7346 10.3948 18.2345 9.62284 17.5821 8.97044C16.9514 8.31804 16.2012 7.81787 15.3313 7.46993C14.4614 7.12199 13.5155 6.94801 12.4934 6.94801C11.4713 6.94801 10.5253 7.12199 9.65545 7.46993C8.80734 7.81787 8.05708 8.31804 7.40469 8.97044C6.75229 9.62284 6.24125 10.3948 5.87156 11.2864C5.52361 12.1781 5.34964 13.1675 5.34964 14.2548C5.34964 15.3204 5.52361 16.3099 5.87156 17.2232C6.24125 18.1148 6.74142 18.8869 7.37207 19.5392C8.02446 20.1916 8.78559 20.6918 9.65545 21.0398C10.5253 21.3877 11.4713 21.5617 12.4934 21.5617Z" fill="white"/>
<path d="M35.935 25.9327C33.8691 25.9327 32.2598 25.4108 31.1073 24.367C29.9547 23.3014 29.3784 21.7248 29.3784 19.6371V4.24057H34.4671V19.5719C34.4671 20.3112 34.6628 20.8875 35.0543 21.3007C35.4457 21.6922 35.9785 21.8879 36.6526 21.8879C37.4573 21.8879 38.1423 21.6704 38.7077 21.2355L40.0777 24.8237C39.5558 25.1933 38.9252 25.476 38.1858 25.6718C37.4681 25.8457 36.7179 25.9327 35.935 25.9327ZM26.671 12.4281V8.51376H38.8382V12.4281H26.671Z" fill="white"/>
<path d="M42.9342 25.6718V8.12232H47.7946V13.0805L47.1096 11.6453C47.6315 10.4057 48.4687 9.47061 49.6213 8.83996C50.7739 8.18756 52.1765 7.86137 53.8293 7.86137V12.5586C53.6118 12.5369 53.4161 12.526 53.2421 12.526C53.0681 12.5042 52.8833 12.4934 52.6876 12.4934C51.2958 12.4934 50.165 12.8957 49.2951 13.7003C48.447 14.4832 48.0229 15.7119 48.0229 17.3863V25.6718H42.9342Z" fill="white"/>
<path d="M56.855 25.6718V8.12232H61.9437V25.6718H56.855ZM59.3993 5.67584C58.4642 5.67584 57.7031 5.40401 57.1159 4.86035C56.5288 4.31668 56.2352 3.64254 56.2352 2.83792C56.2352 2.0333 56.5288 1.35916 57.1159 0.815496C57.7031 0.271832 58.4642 0 59.3993 0C60.3344 0 61.0956 0.260959 61.6827 0.782876C62.2699 1.28305 62.5634 1.93544 62.5634 2.74006C62.5634 3.58818 62.2699 4.29494 61.6827 4.86035C61.1173 5.40401 60.3562 5.67584 59.3993 5.67584Z" fill="white"/>
<path d="M77.0395 25.9327C75.5607 25.9327 74.2668 25.6065 73.1577 24.9541C72.0487 24.3017 71.1788 23.3123 70.5482 21.9857C69.9393 20.6374 69.6348 18.9412 69.6348 16.897C69.6348 14.8311 69.9284 13.1349 70.5155 11.8084C71.1027 10.4818 71.9508 9.49236 73.0599 8.83996C74.169 8.18756 75.4955 7.86137 77.0395 7.86137C78.6922 7.86137 80.171 8.24193 81.4758 9.00306C82.8023 9.74244 83.8461 10.7863 84.6073 12.1346C85.3902 13.4828 85.7816 15.0703 85.7816 16.897C85.7816 18.7455 85.3902 20.3439 84.6073 21.6922C83.8461 23.0404 82.8023 24.0843 81.4758 24.8237C80.171 25.563 78.6922 25.9327 77.0395 25.9327ZM66.6664 32V8.12232H71.5267V11.7105L71.4289 16.9297L71.7551 22.1162V32H66.6664ZM76.1588 21.7574C77.0069 21.7574 77.7571 21.5617 78.4095 21.1702C79.0837 20.7788 79.6165 20.2243 80.0079 19.5066C80.4211 18.7672 80.6277 17.8974 80.6277 16.897C80.6277 15.875 80.4211 15.0051 80.0079 14.2875C79.6165 13.5698 79.0837 13.0153 78.4095 12.6239C77.7571 12.2324 77.0069 12.0367 76.1588 12.0367C75.3106 12.0367 74.5495 12.2324 73.8754 12.6239C73.2012 13.0153 72.6684 13.5698 72.277 14.2875C71.8856 15.0051 71.6898 15.875 71.6898 16.897C71.6898 17.8974 71.8856 18.7672 72.277 19.5066C72.6684 20.2243 73.2012 20.7788 73.8754 21.1702C74.5495 21.5617 75.3106 21.7574 76.1588 21.7574Z" fill="white"/>
</svg>
