<svg width="49" height="18" viewBox="0 0 49 18" fill="none" xmlns="http://www.w3.org/2000/svg">
<path d="M7.61403 14.382C6.61803 14.382 5.69403 14.22 4.84203 13.896C4.00203 13.572 3.27003 13.116 2.64603 12.528C2.03403 11.94 1.55403 11.25 1.20603 10.458C0.870026 9.666 0.702026 8.802 0.702026 7.866C0.702026 6.93 0.870026 6.066 1.20603 5.274C1.55403 4.482 2.04003 3.792 2.66403 3.204C3.28803 2.616 4.02003 2.16 4.86003 1.836C5.70003 1.512 6.61203 1.35 7.59603 1.35C8.59203 1.35 9.50403 1.512 10.332 1.836C11.172 2.16 11.898 2.616 12.51 3.204C13.134 3.792 13.62 4.482 13.968 5.274C14.316 6.054 14.49 6.918 14.49 7.866C14.49 8.802 14.316 9.672 13.968 10.476C13.62 11.268 13.134 11.958 12.51 12.546C11.898 13.122 11.172 13.572 10.332 13.896C9.50403 14.22 8.59803 14.382 7.61403 14.382ZM7.59603 11.898C8.16003 11.898 8.67603 11.802 9.14403 11.61C9.62403 11.418 10.044 11.142 10.404 10.782C10.764 10.422 11.04 9.996 11.232 9.504C11.436 9.012 11.538 8.466 11.538 7.866C11.538 7.266 11.436 6.72 11.232 6.228C11.04 5.736 10.764 5.31 10.404 4.95C10.056 4.59 9.64203 4.314 9.16203 4.122C8.68203 3.93 8.16003 3.834 7.59603 3.834C7.03203 3.834 6.51003 3.93 6.03003 4.122C5.56203 4.314 5.14803 4.59 4.78803 4.95C4.42803 5.31 4.14603 5.736 3.94203 6.228C3.75003 6.72 3.65403 7.266 3.65403 7.866C3.65403 8.454 3.75003 9 3.94203 9.504C4.14603 9.996 4.42203 10.422 4.77003 10.782C5.13003 11.142 5.55003 11.418 6.03003 11.61C6.51003 11.802 7.03203 11.898 7.59603 11.898Z" fill="black"/>
<path d="M20.5314 14.31C19.3914 14.31 18.5034 14.022 17.8674 13.446C17.2314 12.858 16.9134 11.988 16.9134 10.836V2.34H19.7214V10.8C19.7214 11.208 19.8294 11.526 20.0454 11.754C20.2614 11.97 20.5554 12.078 20.9274 12.078C21.3714 12.078 21.7494 11.958 22.0614 11.718L22.8174 13.698C22.5294 13.902 22.1814 14.058 21.7734 14.166C21.3774 14.262 20.9634 14.31 20.5314 14.31ZM15.4194 6.858V4.698H22.1334V6.858H15.4194Z" fill="black"/>
<path d="M24.3937 14.166V4.482H27.0757V7.218L26.6977 6.426C26.9857 5.742 27.4477 5.226 28.0837 4.878C28.7197 4.518 29.4937 4.338 30.4057 4.338V6.93C30.2857 6.918 30.1777 6.912 30.0817 6.912C29.9857 6.9 29.8837 6.894 29.7757 6.894C29.0077 6.894 28.3837 7.116 27.9037 7.56C27.4357 7.992 27.2017 8.67 27.2017 9.594V14.166H24.3937Z" fill="black"/>
<path d="M32.0753 14.166V4.482H34.8833V14.166H32.0753ZM33.4793 3.132C32.9633 3.132 32.5433 2.982 32.2193 2.682C31.8953 2.382 31.7333 2.01 31.7333 1.566C31.7333 1.122 31.8953 0.75 32.2193 0.450001C32.5433 0.15 32.9633 0 33.4793 0C33.9953 0 34.4153 0.144 34.7393 0.432001C35.0633 0.708001 35.2253 1.068 35.2253 1.512C35.2253 1.98 35.0633 2.37 34.7393 2.682C34.4273 2.982 34.0073 3.132 33.4793 3.132Z" fill="black"/>
<path d="M43.2134 14.31C42.3974 14.31 41.6834 14.13 41.0714 13.77C40.4594 13.41 39.9794 12.864 39.6314 12.132C39.2954 11.388 39.1274 10.452 39.1274 9.324C39.1274 8.184 39.2894 7.248 39.6134 6.516C39.9374 5.784 40.4054 5.238 41.0174 4.878C41.6294 4.518 42.3614 4.338 43.2134 4.338C44.1254 4.338 44.9414 4.548 45.6614 4.968C46.3934 5.376 46.9694 5.952 47.3894 6.696C47.8214 7.44 48.0374 8.316 48.0374 9.324C48.0374 10.344 47.8214 11.226 47.3894 11.97C46.9694 12.714 46.3934 13.29 45.6614 13.698C44.9414 14.106 44.1254 14.31 43.2134 14.31ZM37.4894 17.658V4.482H40.1714V6.462L40.1174 9.342L40.2974 12.204V17.658H37.4894ZM42.7274 12.006C43.1954 12.006 43.6094 11.898 43.9694 11.682C44.3414 11.466 44.6354 11.16 44.8514 10.764C45.0794 10.356 45.1934 9.876 45.1934 9.324C45.1934 8.76 45.0794 8.28 44.8514 7.884C44.6354 7.488 44.3414 7.182 43.9694 6.966C43.6094 6.75 43.1954 6.642 42.7274 6.642C42.2594 6.642 41.8394 6.75 41.4674 6.966C41.0954 7.182 40.8014 7.488 40.5854 7.884C40.3694 8.28 40.2614 8.76 40.2614 9.324C40.2614 9.876 40.3694 10.356 40.5854 10.764C40.8014 11.16 41.0954 11.466 41.4674 11.682C41.8394 11.898 42.2594 12.006 42.7274 12.006Z" fill="black"/>
</svg>
