<svg xmlns="http://www.w3.org/2000/svg" width="225" height="136" fill="none"><g clip-path="url(#a)"><path fill="#727026" d="M54.651 21.356s-4.396-12.49 3.926-18.87c0 0-13.631 2.598-10.471 18.87h6.545Z"/><path fill="#8C8C33" d="M53.787 4.616s-.038.03-.058.04c.02-.01.039-.03.058-.04ZM52.934 5.314l-.078.076.078-.076ZM55.574 3.537l-.059.03c.02 0 .04-.02.059-.03ZM50.608 8.016s-.039.057-.049.086a.384.384 0 0 0 .05-.086ZM51.374 6.966s-.079.095-.108.143c.039-.048.069-.096.108-.143ZM44.612 18.96c-.02-2.474.373-8.614 4.279-13.16-3.906 4.555-4.299 10.686-4.279 13.16Z"/><path fill="#727026" d="M51.266 7.109c-.226.286-.442.592-.648.916.206-.315.422-.62.648-.916ZM50.56 8.102ZM51.374 6.966c.461-.583.962-1.118 1.482-1.576-.52.468-1.011.993-1.482 1.576ZM57.38 2.83a10.86 10.86 0 0 0-1.806.707 11.762 11.762 0 0 1 1.806-.706ZM55.515 3.566a12.05 12.05 0 0 0-1.727 1.05c.56-.41 1.138-.764 1.727-1.05ZM48.861 11.73Z"/><path fill="#A8AD44" d="M60.216.759a26.987 26.987 0 0 0-1.747-.03c-4.475.736-7.517 2.684-9.578 5.071-3.906 4.546-4.299 10.686-4.279 13.16 0 .286 0 .524.02.696V19.981c0 .076 3.248.191 3.248.191-.03-.592-.04-1.175-.03-1.728v-.354c.01-.544.04-1.07.08-1.575 0-.086.019-.172.029-.258.039-.468.098-.917.166-1.356l.03-.22c.078-.477.167-.926.275-1.375.02-.095.049-.19.068-.286.108-.45.226-.879.363-1.29.148-.448.295-.84.452-1.212.03-.077.059-.144.088-.22.157-.372.334-.735.51-1.079.03-.057.06-.105.089-.162.176-.325.363-.65.56-.946a.384.384 0 0 0 .048-.086c.206-.324.422-.62.648-.916.04-.048.069-.096.108-.144.461-.582.962-1.107 1.482-1.575l.078-.077c.265-.229.53-.448.805-.649.02-.01.04-.029.059-.038.56-.41 1.138-.764 1.727-1.05.02 0 .04-.02.059-.03a11.762 11.762 0 0 1 1.806-.706c1.197-.344 2.375-.468 3.454-.372C74.26 3.642 74.171 15.426 73.357 21.03l2.748.096c.078-3.142 2.424-19.442-15.88-20.35L60.217.76Z"/><path fill="#8C8C33" d="M58.43.73a67.9 67.9 0 0 1 .922-.124c-.314.038-.628.076-.922.124Z"/><path fill="#727026" d="M64.092.434c-.598-.029-1.167-.038-1.727-.029-.226 0-.451.01-.677.02-.304 0-.608.018-.903.038-.284.019-.56.038-.834.066-.196.02-.392.048-.589.067-.314.038-.628.077-.922.124.579 0 1.168 0 1.786.029 18.293.907 15.957 17.208 15.879 20.35l6.918.229S84.338 1.445 64.093.434Z"/><path fill="#A8AD44" d="M2.992 107.919 2.49 122.1a12.86 12.86 0 0 0 .442 3.848c1.374 5.157 5.77 9.082 10.922 9.139l43.358.506H97.45c5.034 0 9.323-4.221 9.637-9.721a25.31 25.31 0 0 0-.54-6.713l-1.315-9.721-4.053-29.631a33.829 33.829 0 0 1-.756-5.701l-1.6-34.263a23.238 23.238 0 0 0-4.504-12.72 22.181 22.181 0 0 0-3.14-3.399 14.443 14.443 0 0 0-4.171-2.559 13.2 13.2 0 0 0-3.69-.907 9.679 9.679 0 0 0-1.05-.076L39.999 18.93a15.155 15.155 0 0 0-7.262 1.613L18.792 27.64c-4.8 2.444-7.93 7.343-8.332 12.967L9.155 56.001l-.02.22 5.025.438-1.12 17.733-.303.124c-4.19 1.69-7.243 5.472-8.185 10.16l-4.25 21.295.315.22 2.375 1.728Z"/><path fill="url(#b)" d="M107.106 125.051c-.127 5.901-4.661 10.542-10.069 10.542H86.811c-4.367-1.07-7.978-4.374-9.784-8.738a16.335 16.335 0 0 1-1.237-6.226c-.039-9.549.697-20.139 1.178-24.398.903-8.002-3.366-38.053-3.847-43.678-.49-5.624-1.256-15.355-.932-21.19.196-3.57 6.36-8.107 11.129-11.096a13.63 13.63 0 0 1 3.69.908 14.107 14.107 0 0 1 4.17 2.559 22.172 22.172 0 0 1 3.141 3.4c2.699 3.628 4.289 8.059 4.505 12.719l1.599 34.262c.089 1.92.344 3.83.756 5.701l4.053 29.631 1.315 9.721c.402 1.901.609 3.925.569 5.892l-.01-.009Z"/><path fill="#75606D" d="M103.623 121.861c-.04 5.434-3.406 9.74-7.459 9.788l-7.674.077c-3.288-.955-6.026-3.973-7.41-7.974a17.964 17.964 0 0 1-.981-5.72c-.108-8.795.353-18.554.677-22.488.608-7.372-2.846-35.036-3.258-40.212-.422-5.176-1.07-14.133-.883-19.518.098-2.76 3.326-6.188 6.457-8.862 1.256-1.07 3.003-1.356 4.495-.64a10.662 10.662 0 0 1 3.17 2.34 18.985 18.985 0 0 1 2.375 3.113c2.05 3.323 3.277 7.4 3.493 11.678l1.521 31.55a38.85 38.85 0 0 0 .619 5.243l3.307 27.263 1.07 8.938c.324 1.748.49 3.61.481 5.424Z" opacity=".25" style="mix-blend-mode:color-burn"/><path fill="#A8AD44" d="M2.992 107.919 2.49 122.1c-.236 6.933 4.985 12.91 11.355 12.987l43.357.506H70.59c2.09-.554 3.563-2.722 3.327-5.185-1.678-17.37-5.319-54.268-5.339-54.927L13.031 74.4l-1.521.612c-3.425 1.385-5.928 4.478-6.703 8.317L.303 105.971l.314.22 2.375 1.728Z"/><path fill="#BFBF51" d="m94.162 27.21-4.26-2.626c-2.011-1.242-4.494-1.27-6.516-.067l-9.637 5.739c-2.59 1.547-4.23 4.383-4.337 7.525l-.668 19.394-59.737-1.079 1.306-15.393c.392-5.625 3.533-10.523 8.332-12.968L32.59 20.64a15.02 15.02 0 0 1 7.262-1.614l42.268 1.251c1.63.048 3.239.382 4.74.984a14.113 14.113 0 0 1 4.171 2.559 22.181 22.181 0 0 1 3.14 3.4l-.009-.01Z"/><path fill="#8C8C33" d="M48.243 15.168c0 .086-.02.172-.03.258 0-.086.02-.172.03-.258ZM44.887 17.89c0 .277 0 .506.02.687 0-.181-.01-.41-.02-.687Z"/><path fill="#727026" d="M48.174 19.093c-.029-.592-.039-1.175-.029-1.728 0 .563 0 1.136.03 1.728ZM48.714 12.218ZM48.41 13.812c-.069.44-.118.898-.167 1.356.04-.468.098-.916.167-1.356ZM76.39 20.115l6.928.152-6.929-.229v.086-.01Z"/><path fill="url(#c)" d="m68.587 75.471-1.492 1.452c-1.619 1.585-2.698 3.705-3.052 6.035l-3.729 24.522-59.707-1.289-.314-.22 4.622-23.137c.716-3.524 3.013-6.37 6.163-7.64l1.963-.792 55.546 1.079v-.01Z"/><path fill="#8C8C33" d="M58.351 105.838h-.196L2.952 103.89l4.112-20.464c.57-2.779 2.385-5.033 4.868-6.035l1.57-.63 51.15.697-.206.362c-.128.23-.285.507-.462.803-.834 1.46-2.09 3.657-2.286 4.956l-3.356 22.259h.01Zm-54.83-2.416 54.448 1.919 3.287-21.848c.216-1.385 1.502-3.629 2.346-5.119.088-.152.167-.296.245-.439L13.6 77.247l-1.491.602c-2.346.945-4.063 3.084-4.603 5.71l-3.994 19.872.01-.009Z"/><path fill="#935328" d="M31.05 53.957s.44 5.605-.119 12.099c-.55 6.321-2.04 13.474-5.81 17.093l3.916 8.002 9.265-7.133s6.34-12.328 4.651-29.412l-11.894-.649h-.01Z"/><path fill="#724120" d="m42.944 54.606-1.03-.057c1.432 16.692-4.711 28.657-4.711 28.657l-8.764 6.751.589 1.204 9.264-7.134s6.34-12.328 4.652-29.411v-.01Z"/><path fill="url(#d)" d="m94.31 26.723-4.26-2.626c-2.012-1.242-4.495-1.27-6.516-.067l-9.647 5.739c-2.591 1.547-4.23 4.383-4.338 7.525l-.667 19.394L9.135 55.61l1.305-15.393c.393-5.625 3.533-10.523 8.332-12.968l13.946-7.095a15.02 15.02 0 0 1 7.262-1.614l42.278 1.251c1.629.048 3.238.382 4.74.984a14.114 14.114 0 0 1 4.17 2.559 22.186 22.186 0 0 1 3.141 3.4v-.01Z"/><path fill="#8C8C33" d="m12.148 53.317-.874-.019.079-.907.461.057-.04.373.364.01.01.486ZM11.814 52.448l-.461-.067 1.02-11.87c.805-5.958 2.925-9.73 6.487-11.544l17.42-9.186c.157-.077.569-.287 6.251-.287 11.492 0 35.252.83 39.903 1.003v.487c-4.651-.163-28.4-1.003-39.883-1.003-4.848 0-5.869.153-6.055.239l-17.42 9.186c-3.415 1.748-5.456 5.405-6.241 11.182l-1.021 11.85v.01Z"/><path fill="#8C8C33" d="m82.562 21.232-.098-.248-.04-.105-.039-.105.05-.287 1.766.067-1.06.43-.57.238-.009.01Z"/><path fill="#8C8C33" d="m65.604 53.212-.462-.019.393-17.188c.147-7.592 14.053-14.01 16.85-15.222l.187.449c-2.748 1.194-16.428 7.496-16.576 14.792l-.392 17.188ZM65.584 54.1l-.844-.019v-.477h.393l.01-.41.46.018-.019.888ZM64.74 54.081l-52.592-.764-.01-.487 52.602.774v.477Z"/><path fill="#8C8C33" d="m92.72 25.472-4.073-2.512c-2.012-1.241-4.505-1.27-6.517-.067l-9.647 5.74c-2.59 1.547-4.23 4.383-4.337 7.524l-.658 19.395-58.343-1.06-.138 1.595 59.737 1.078.864-19.403c.108-3.142 1.54-5.969 4.141-7.516l9.637-5.739c2.012-1.193 4.505-1.165 6.517.067l4.259 2.626a22.433 22.433 0 0 0-1.443-1.738v.01ZM68.587 75.471l-3.072 4.65-5.113 27.416-60.139-1.594 2.729 1.976 57.754 1.729 5.378-29.689 2.463-4.488Z"/><path fill="#8C8C33" d="m68.577 75.48-.981 59.903h-.216c-4.338-.124-7.88-6.723-7.782-11.459l.706-16.329 3.582-23.653c.452-2.96 1.816-5.654 3.877-7.668l.804-.784.01-.01Z"/><path fill="#75606D" d="M107.106 125.051c-.127 5.901-4.661 10.542-10.069 10.542H57.203l-43.367-.506c-5.152-.057-9.549-3.982-10.923-9.139 10.334 1.834 46.851 7.458 74.114.907 12.199-2.922 22.63-8.25 28.195-17.408l1.315 9.721c.403 1.901.609 3.925.569 5.892v-.009Z" opacity=".25" style="mix-blend-mode:color-burn"/><path fill="#F7C954" d="m40.834 59.6-9.147-.248c-1.953-.047-3.523 1.423-3.503 3.304l.068 7.048c.02 1.871 1.61 3.437 3.553 3.485l9.097.248c1.944.048 3.514-1.422 3.504-3.304l-.02-7.047c0-1.872-1.6-3.438-3.552-3.485Zm1.099 9.397c0 1.299-1.09 2.33-2.434 2.292l-6.32-.172c-1.354-.038-2.454-1.117-2.463-2.426l-.04-4.889c-.01-1.298 1.08-2.33 2.434-2.292l6.35.172c1.354.038 2.463 1.118 2.463 2.426l.02 4.889h-.01Z"/><path fill="#DBA733" d="M32.63 71.04c-1.09-.267-1.914-1.222-1.924-2.349l-.04-4.889c-.01-1.298 1.08-2.33 2.434-2.292l6.203.163a2.538 2.538 0 0 0-.55-.077l-6.35-.171c-1.354-.039-2.443.993-2.433 2.291l.049 4.89c.01 1.298 1.119 2.387 2.473 2.425h.147l-.01.01Z"/><path fill="#DBA733" d="M40.834 59.6c1.61.344 2.855 1.758 2.855 3.41l.02 7.047c0 1.872-1.56 3.352-3.503 3.304l-9.078-.248c.216.047.441.076.667.076l9.098.248c1.943.048 3.513-1.422 3.503-3.304l-.02-7.047c0-1.872-1.6-3.438-3.552-3.485h.01Z"/><path fill="#724120" d="M37.91 63.44c.019.61-.874 1.117-1.993 1.117-1.119 0-2.041-.497-2.061-1.118-.02-.61.873-1.117 1.992-1.117s2.041.497 2.061 1.117Z"/><path fill="#F7C954" d="M36.86 63.363h-1.836l-.138-4.46c-.01-.458.334-.84.766-.84h.255c.442 0 .805.373.815.84l.137 4.46Z"/><path fill="#4C2607" d="m143.162 85.647-2.502 2.636-2.62 39.027 7.37 9.101 9.647-10.953 1.305-21.505-5.663-13.092-7.537-5.214Z"/><path fill="#894812" d="m142.054 133.068-.462-44.384 2.365-2.483-.795-.554-2.502 2.636.206 45.731 4.544 2.397.638-.726-3.994-2.617ZM180.799 86.086l-3.21 3.772 1.502 41.577 4.033 2.722 8.44-3.877 4.417-25.926-9.775-16.004-5.407-2.264Z"/><path fill="#4C2607" d="m181.358 86.43-3.209 3.772 1.688 40.269 3.317 3.676 8.97-3.523 4.416-25.926-9.775-16.005-5.407-2.263Z"/><path fill="url(#e)" d="M221.025 124.961c-2.355 4.412-8.803 8.222-8.803 8.222s-27.606-1.346-38.156-.258c-8.999.936-38.195 2.712-48.225 3.486-1.737.133-2.905.238-3.288.296-2.581.429-15.525-1.194-17.694-3.075-1.04-.898-3.189-6.293-5.054-12.128-2.022-6.293-3.7-13.12-3.258-15.307.844-4.192 9.166-22.269 17.998-24.618 0 0 6.262 1.404 12.631 2.836 4.269.965 8.597 1.939 11.109 2.521 6.261 1.442 34.515 3.84 41.189 2.55 6.673-1.29 24.338-5.348 28.214-6.207 3.671-.812 13.769 12.815 16.321 18.182.147.305.275.582.363.84 1.747 4.612-.991 18.258-3.347 22.67v-.01Z"/><path fill="#6D390A" d="M143.162 85.647s8.323 12.481 10.089 21.839c1.767 9.358-5.986 26.385-7.841 28.915l8.979-.63c.923-.067 1.747-.564 2.199-1.347 2.237-3.857 8.528-15.994 6.222-26.986-2.787-13.273-9.157-21.428-9.157-21.428l-10.491-.372v.01Z"/><path fill="#894812" d="M146.754 136.296c2.346-3.963 9.098-19.815 7.429-28.8-1.57-8.47-8.292-19.433-9.794-21.801l-1.227-.048s8.323 12.481 10.089 21.839c1.767 9.358-5.986 26.385-7.841 28.915l1.344-.115v.01Z"/><path fill="#6D390A" d="M180.828 86.106s9.637 10.6 10.354 19.27c.912 10.905-3.484 24.064-8.058 28.781l8.067-.449c2.012-.114 3.749-1.413 4.377-3.275 2.199-6.551 6.831-21.744 4.799-28.132-2.62-8.25-9.127-16.778-9.127-16.778l-10.412.583Z"/><path fill="#894812" d="M192.34 105.29c-.648-7.907-8.519-17.36-10.138-19.232l-1.403.038s9.666 10.61 10.392 19.28c.874 10.418-3.101 22.889-7.448 28.103-.599.401-1.207-.019-1.207-.019l-.04.057.648.64 1.6-.086c4.406-5.185 8.489-18.057 7.605-28.791l-.009.01Z"/><path fill="#75606D" d="M221.025 124.961c-2.355 4.412-8.803 8.222-8.803 8.222s-27.606-1.346-38.156-.258c-8.999.936-38.195 2.712-48.225 3.486-1.737.133-2.905.238-3.288.296-2.581.429-15.525-1.194-17.694-3.075-1.04-.898-3.189-6.293-5.054-12.128 3.768-12.003 13.494-20.158 35.114-15.126 46.419 10.791 78.864-.487 89.08-4.936.147.305.275.582.363.84 1.747 4.612-.991 18.258-3.346 22.67l.009.009Z" opacity=".25" style="mix-blend-mode:color-burn"/><path fill="#FCB138" d="M131.837 90.947c-1.992-2.798-3.503-4.937-4.661-6.532-6.369-1.432-12.631-2.836-12.631-2.836-1.943.516-3.866 1.805-5.692 3.534l-5.034-.182-7.38 21.218.137-.066s-.02.086-.03.114c-.843 4.202 6.154 25.563 8.323 27.445 2.169 1.881 15.103 3.504 17.694 3.074.383-.057 1.541-.162 3.288-.296 4.426-7.381 14.053-23.5 14.711-24.952.854-1.89-2.64-11.946-8.715-20.52h-.01Z"/><path fill="#FCB138" d="M131.837 90.947c-1.992-2.798-3.503-4.937-4.661-6.532-6.369-1.432-12.631-2.836-12.631-2.836-1.943.516-3.866 1.805-5.692 3.534l-5.034-.182-7.38 21.218.137-.066s-.02.086-.03.114c-.843 4.202 6.154 25.563 8.323 27.445 2.169 1.881 15.103 3.504 17.694 3.074.383-.057 1.541-.162 3.288-.296 4.426-7.381 14.053-23.5 14.711-24.952.854-1.89-2.64-11.946-8.715-20.52h-.01Z"/><path fill="#FFDA3E" d="M140.552 111.468c-.658 1.452-10.285 17.571-14.711 24.952-1.737.134-2.905.239-3.288.296-2.581.43-15.525-1.193-17.694-3.075-2.159-1.871-9.156-23.242-8.312-27.444 0-.038.02-.086.03-.115l-.128.067 7.37-21.218 2.62.086 2.414.086c.089-.086.177-.172.265-.248 1.747-1.614 3.573-2.789 5.427-3.285 0 0 6.262 1.403 12.631 2.836 1.158 1.594 2.669 3.733 4.661 6.531 6.075 8.576 9.569 18.631 8.715 20.522v.009Z"/><path fill="#FCB138" d="M130.385 91.32c-1.826-2.703-3.219-4.766-4.269-6.313-5.839-1.384-11.58-2.74-11.58-2.74-1.787.496-4.122 1.642-5.8 3.313l-4.034-.076-6.752 20.483.128-.067-.03.115c-.775 4.049 5.643 24.675 7.626 26.489 1.982 1.814 13.847 3.38 16.212 2.97.344-.057 1.413-.162 3.013-.287 4.053-7.123 12.876-22.679 13.474-24.083.785-1.824-2.424-11.535-7.998-19.805h.01Z"/><path fill="#FFC840" d="m106.891 104.898 3.591-12.394c.373-1.28 1.659-2.11 3.013-1.93l7.41.956c1.06.133 1.962.84 2.326 1.814l6.732 17.857a4.704 4.704 0 0 1-.079 3.523l-5.721 13.665 7.252-12.967a4.709 4.709 0 0 0 .265-3.963l-7.939-20.608a1.287 1.287 0 0 0-1.04-.802l-10.118-1.346c-1.051-.21-2.091.44-2.326 1.46l-3.386 14.745.02-.01Z"/><path fill="#EA760F" d="M108.745 85.695c-.412.105-3.817 11.115-5.662 17.628a15.34 15.34 0 0 0 .098 8.699c1.894 6.169 5.358 16.759 6.978 17.542 1.903.917 6.712 1.213 9.862 1.299 1.757.047 3.367-.955 4.044-2.541l5.976-13.96a3.775 3.775 0 0 0 .059-2.817l-6.997-18.564c-.285-.764-.991-1.308-1.816-1.423l-8.449-1.098c-.972-.124-1.894.468-2.159 1.394l-3.788 13.369 5.633 14.496c.657 1.68 2.63 2.482 4.308 1.747l4.573-1.996c1.374-.601 2.14-2.053 1.826-3.485l-1.669-7.735-1.717.984 1.334 7.152c.167.888-.314 1.767-1.158 2.139l-3.258 1.432c-1.089.478-2.375-.066-2.748-1.174l-4.396-13.006 2.679-11.984c.236-1.041 1.286-1.69 2.345-1.461l5.948.64c.844.095 1.57.64 1.864 1.422l6.477 16.988a3.762 3.762 0 0 1-.078 2.865l-5.3 12.013c-.726 1.642-2.453 2.645-4.278 2.483-2.63-.239-6.163-.726-7.41-1.71-2.708-2.148-5.643-9.826-7.321-14.782a15.35 15.35 0 0 1-.383-8.518l4.583-18.038Z"/><path fill="#FFC840" d="M108.745 85.695s-4.808 17.532-4.877 18.726c-.069 1.194-.834 5.672 1.923 11.526 2.758 5.863 3.857 10.752 7.812 11.927 3.955 1.174 7.841.945 7.841.945s-6.693-1.232-7.625-1.576c-.932-.343-2.375-1.384-2.885-2.645-.51-1.26-4.505-9.912-4.789-10.609-.295-.697-1.894-5.376-1.335-9.368.559-3.991 3.935-18.936 3.935-18.936v.01Z"/></g><defs><linearGradient id="b" x1="72.11" x2="107.116" y1="77.925" y2="77.925" gradientUnits="userSpaceOnUse"><stop stop-color="#8C8C33"/><stop offset=".99" stop-color="#A8AD44"/></linearGradient><linearGradient id="c" x1="34.445" x2="34.445" y1="107.48" y2="74.392" gradientUnits="userSpaceOnUse"><stop stop-color="#A8AD44"/><stop offset=".47" stop-color="#C0C052"/><stop offset=".99" stop-color="#D1CE5E"/></linearGradient><linearGradient id="d" x1="51.727" x2="51.727" y1="56.688" y2="18.52" gradientUnits="userSpaceOnUse"><stop stop-color="#A8AD44"/><stop offset=".47" stop-color="#C0C052"/><stop offset=".99" stop-color="#D1CE5E"/></linearGradient><linearGradient id="e" x1="160.836" x2="160.602" y1="136.619" y2="81.387" gradientUnits="userSpaceOnUse"><stop stop-color="#EA760F"/><stop offset="1" stop-color="#F7932F"/></linearGradient><clipPath id="a"><path fill="#fff" d="M-144-97h369v233h-369z"/></clipPath></defs></svg>